<?xml version="1.0" encoding="utf-8"?>
<svg width="31" height="31" viewBox="0 0 31 31" fill="none" xmlns="http://www.w3.org/2000/svg">
  <g>
    <path d="M8.99003 10.3334C9.1967 10.54 9.4378 10.6434 9.71333 10.6434C9.98886 10.6434 10.23 10.54 10.4366 10.3334C10.4366 10.3334 19.1166 1.65337 19.1166 1.65337C19.3233 1.4467 19.4266 1.20557 19.4266 0.92997C19.4266 0.654436 19.3233 0.430559 19.1166 0.25834C18.91 0.086113 18.6689 0 18.3933 0C18.1178 0 17.9111 0.103323 17.7733 0.30997C17.7733 0.30997 9.71333 8.26667 9.71333 8.26667C9.71333 8.26667 1.65333 0.30997 1.65333 0.30997C1.51555 0.103323 1.30888 0 1.03333 0C0.757777 0 0.516666 0.086113 0.31 0.25834C0.103333 0.430559 0 0.654436 0 0.92997C0 1.20557 0.103333 1.4467 0.31 1.65337C0.31 1.65337 8.99003 10.3334 8.99003 10.3334Z" fill="#CACACA" transform="translate(5.787 10.713)" />
  </g>
</svg>