<?xml version="1.0" encoding="utf-8"?>
<svg width="31" height="31" viewBox="0 0 31 31" fill="none" xmlns="http://www.w3.org/2000/svg">
  <g>
    <path d="M13.5367 0.93C13.5367 0.654447 13.4506 0.43056 13.2784 0.25834C13.1061 0.0861132 12.8822 0 12.6067 0C12.3311 0 12.09 0.0861132 11.8834 0.25834C11.6767 0.43056 11.5734 0.654447 11.5734 0.93C11.5734 0.93 11.5734 11.5734 11.5734 11.5734C11.5734 11.5734 0.93 11.5734 0.93 11.5734C0.654447 11.5734 0.43056 11.6767 0.25834 11.8834C0.0861132 12.09 0 12.3311 0 12.6067C0 12.8822 0.0861132 13.1061 0.25834 13.2784C0.43056 13.4506 0.654447 13.5367 0.93 13.5367C0.93 13.5367 11.5734 13.5367 11.5734 13.5367C11.5734 13.5367 11.5734 24.18 11.5734 24.18C11.5734 24.4556 11.6767 24.6795 11.8834 24.8517C12.09 25.0239 12.3311 25.11 12.6067 25.11C12.8822 25.11 13.1061 25.0239 13.2784 24.8517C13.4506 24.6795 13.5367 24.4556 13.5367 24.18C13.5367 24.18 13.5367 13.5367 13.5367 13.5367C13.5367 13.5367 24.18 13.5367 24.18 13.5367C24.4556 13.5367 24.6967 13.4506 24.9034 13.2784C25.11 13.1061 25.2134 12.8822 25.2134 12.6067C25.2134 12.3311 25.11 12.09 24.9034 11.8834C24.6967 11.6767 24.4556 11.5734 24.18 11.5734C24.18 11.5734 13.5367 11.5734 13.5367 11.5734C13.5367 11.5734 13.5367 0.93 13.5367 0.93Z" fill="#CACACA" transform="translate(2.963 2.963)" />
  </g>
</svg>