<?xml version="1.0" encoding="utf-8"?>
<svg width="31" height="31" viewBox="0 0 31 31" fill="none" xmlns="http://www.w3.org/2000/svg">
  <g>
    <path d="M11.3666 0.31C11.16 0.103333 10.9189 0 10.6433 0C10.3678 0 10.1611 0.103333 10.0233 0.31C10.0233 0.31 0.31 10.0234 0.31 10.0234C0.103333 10.23 0 10.4539 0 10.695C0 10.9361 0.103333 11.16 0.31 11.3667C0.516666 11.5733 0.757777 11.6767 1.03333 11.6767C1.30888 11.6767 1.51555 11.5733 1.65333 11.3667C1.65333 11.3667 9.71333 3.41 9.71333 3.41C9.71333 3.41 9.71333 22.32 9.71333 22.32C9.71333 22.5956 9.79943 22.8195 9.97163 22.9917C10.1439 23.1639 10.3678 23.25 10.6433 23.25C10.9189 23.25 11.16 23.1639 11.3666 22.9917C11.5733 22.8195 11.6766 22.5956 11.6766 22.32C11.6766 22.32 11.6766 3.41 11.6766 3.41C11.6766 3.41 19.6333 11.3667 19.6333 11.3667C19.84 11.5733 20.0811 11.6767 20.3566 11.6767C20.6322 11.6767 20.8561 11.5733 21.0283 11.3667C21.2005 11.16 21.2866 10.9361 21.2866 10.695C21.2866 10.4539 21.2178 10.23 21.08 10.0234C21.08 10.0234 11.3666 0.31 11.3666 0.31Z" fill="#CACACA" transform="translate(4.787 4.823)" />
  </g>
</svg>